HIERARCHY
ROOT joint_Root
{
	OFFSET 0.0 0.0 0.0
	CHANNELS 6 Xposition Yposition Zposition Zrotation Xrotation Yrotation 
	JOINT Hips
	{
		OFFSET -17.1583 93.1646 452.98
		CHANNELS 6 Xposition Yposition Zposition Zrotation Xrotation Yrotation 
		JOINT Spine
		{
			OFFSET 15.7357 0.0 0.0
			CHANNELS 6 Xposition Yposition Zposition Zrotation Xrotation Yrotation 
			JOINT Chest
			{
				OFFSET 8.98455 -0.406207 0.0
				CHANNELS 6 Xposition Yposition Zposition Zrotation Xrotation Yrotation 
				JOINT Neck
				{
					OFFSET 16.3773 0.0 0.0
					CHANNELS 6 Xposition Yposition Zposition Zrotation Xrotation Yrotation 
					JOINT Head
					{
						OFFSET 6.45672 0.0 0.0
						CHANNELS 6 Xposition Yposition Zposition Zrotation Xrotation Yrotation 
						End Site
						{
							OFFSET 0.0 0.0 0.0
						}
					}
				}
				JOINT Shoulder_L
				{
					OFFSET 12.9942 -0.242716 4.98039
					CHANNELS 6 Xposition Yposition Zposition Zrotation Xrotation Yrotation 
					JOINT UpperArm_L
					{
						OFFSET 5.34809 0.0 0.0
						CHANNELS 6 Xposition Yposition Zposition Zrotation Xrotation Yrotation 
						JOINT LowerArm_L
						{
							OFFSET 24.3286 1.87007e-05 0.0
							CHANNELS 6 Xposition Yposition Zposition Zrotation Xrotation Yrotation 
							JOINT Hand_L
							{
								OFFSET 22.2916 0.0 0.0
								CHANNELS 6 Xposition Yposition Zposition Zrotation Xrotation Yrotation 
								End Site
								{
									OFFSET 0.0 0.0 0.0
								}
							}
						}
					}
				}
				JOINT Shoulder_R
				{
					OFFSET 12.9945 -0.242716 -4.98039
					CHANNELS 6 Xposition Yposition Zposition Zrotation Xrotation Yrotation 
					JOINT UpperArm_R
					{
						OFFSET -5.34813 0.0 0.0
						CHANNELS 6 Xposition Yposition Zposition Zrotation Xrotation Yrotation 
						JOINT LowerArm_R
						{
							OFFSET -24.3289 0.000322201 0.0
							CHANNELS 6 Xposition Yposition Zposition Zrotation Xrotation Yrotation 
							JOINT Hand_R
							{
								OFFSET -22.2915 -0.000108084 0.0
								CHANNELS 6 Xposition Yposition Zposition Zrotation Xrotation Yrotation 
								End Site
								{
									OFFSET 0.0 0.0 0.0
								}
							}
						}
					}
				}
			}
		}
		JOINT UpperLeg_L
		{
			OFFSET -2.19248 -6.46944 0.0
			CHANNELS 6 Xposition Yposition Zposition Zrotation Xrotation Yrotation 
			JOINT LowerLeg_L
			{
				OFFSET 39.0811 0.0 -1.23785e-05
				CHANNELS 6 Xposition Yposition Zposition Zrotation Xrotation Yrotation 
				JOINT Foot_L
				{
					OFFSET 40.9854 0.0 -1.26872e-05
					CHANNELS 6 Xposition Yposition Zposition Zrotation Xrotation Yrotation 
					JOINT Toes_L
					{
						OFFSET 11.7543 0.0 0.0
						CHANNELS 6 Xposition Yposition Zposition Zrotation Xrotation Yrotation 
						End Site
						{
							OFFSET 0.0 0.0 0.0
						}
					}
				}
			}
		}
		JOINT UpperLeg_R
		{
			OFFSET -2.19251 6.46944 0.0
			CHANNELS 6 Xposition Yposition Zposition Zrotation Xrotation Yrotation 
			JOINT LowerLeg_R
			{
				OFFSET -39.0811 -0.00228153 -0.0401928
				CHANNELS 6 Xposition Yposition Zposition Zrotation Xrotation Yrotation 
				JOINT Foot_R
				{
					OFFSET -40.9854 0.0 0.0
					CHANNELS 6 Xposition Yposition Zposition Zrotation Xrotation Yrotation 
					JOINT Toes_R
					{
						OFFSET -11.7543 0.0 0.0
						CHANNELS 6 Xposition Yposition Zposition Zrotation Xrotation Yrotation 
						End Site
						{
							OFFSET 0.0 0.0 0.0
						}
					}
				}
			}
		}
	}
}
MOTION
Frames:	4
Frame Time:	0.0333333
0.000000 0.000000 0.000000 0.000000 0.000000 -0.000000 -5.586060 91.938100 -1.869040 84.736800 0.090517 5.468150 15.735700 0.000005 -0.000001 55.342200 86.356500 -52.466500 8.984550 -0.406207 -0.000000 -1.656940 -4.379260 5.688970 16.377300 -0.000001 -0.000001 9.571920 -0.453114 5.747670 6.456720 -0.000001 -0.000000 2.313720 0.332971 10.727600 12.994200 -0.242716 4.980390 -92.216000 6.599340 -71.391900 5.348090 -0.000007 -0.000001 -75.700000 28.596500 2.559100 24.328600 0.000019 0.000005 12.730400 28.283700 -25.490900 22.291600 -0.000001 0.000005 -3.893190 5.036620 6.530690 12.994500 -0.242716 -4.980390 88.198900 4.870120 -69.675900 -5.348130 -0.000001 -0.000004 -70.497900 3.366350 -13.678200 -24.328900 0.000322 -0.000009 16.179100 -18.526500 -137.600000 -22.291500 -0.000108 -0.000004 55.427900 5.662320 -16.333000 -2.192480 -6.469440 -0.000000 -170.749000 4.105880 -2.930860 39.081100 -0.000007 -0.000012 0.352520 -0.678164 27.466900 40.985400 -0.000006 -0.000013 -0.839284 9.360440 -75.773300 11.754300 -0.000000 0.000003 0.001060 0.147308 -10.602800 -2.192510 6.469440 -0.000001 -169.564000 7.047230 -176.154000 -39.081100 -0.002282 -0.040193 0.130549 -0.455559 15.603200 -40.985400 0.000008 0.000006 6.823580 1.155700 -70.607000 -11.754300 -0.000006 -0.000006 -0.008046 0.256075 -6.173460
0.000000 0.000000 0.000000 0.000000 0.000000 -0.000000 -5.562700 91.942000 -1.849900 84.768500 0.099817 5.410610 15.735700 0.000005 -0.000001 55.452100 86.365100 -52.561800 8.984550 -0.406207 -0.000000 -1.663070 -4.359350 5.718010 16.377300 -0.000001 -0.000001 9.531200 -0.491899 5.704570 6.456720 -0.000001 -0.000000 2.298880 0.274703 10.539900 12.994200 -0.242716 4.980390 -92.230400 6.647860 -71.405400 5.348090 -0.000007 -0.000001 -75.791800 28.757200 2.662800 24.328600 0.000019 0.000005 12.763700 28.242300 -25.581000 22.291600 -0.000001 0.000005 -3.780330 5.033790 6.592340 12.994500 -0.242716 -4.980390 88.212700 4.826190 -69.650200 -5.348130 -0.000001 -0.000004 -70.576300 3.224230 -13.762800 -24.328900 0.000322 -0.000009 16.043000 -18.343700 -137.581000 -22.291500 -0.000108 -0.000004 55.382900 5.662560 -16.364700 -2.192480 -6.469440 -0.000000 -170.783000 4.070400 -2.957780 39.081100 -0.000007 -0.000012 0.348005 -0.670998 27.413700 40.985400 -0.000006 -0.000013 -0.813969 9.398820 -75.696100 11.754300 -0.000000 0.000003 0.001187 0.144423 -10.719900 -2.192510 6.469440 -0.000001 -169.611000 7.065660 -176.198000 -39.081100 -0.002282 -0.040193 0.130975 -0.456990 15.606300 -40.985400 0.000008 0.000006 6.811370 1.187800 -70.628200 -11.754300 -0.000006 -0.000006 -0.008119 0.256666 -6.149320
0.000000 0.000000 0.000000 0.000000 0.000000 -0.000000 -5.529890 91.953500 -1.829530 84.803900 0.135452 5.379100 15.735700 0.000005 -0.000001 55.446200 86.358100 -52.542700 8.984550 -0.406207 -0.000000 -1.651130 -4.368710 5.744790 16.377300 -0.000001 -0.000001 9.483530 -0.512888 5.671300 6.456720 -0.000001 -0.000000 2.249400 0.265977 10.319500 12.994200 -0.242716 4.980390 -92.243300 6.686140 -71.404900 5.348090 -0.000007 -0.000001 -75.888200 28.816500 2.749980 24.328600 0.000019 0.000005 12.785700 28.267800 -25.602300 22.291600 -0.000001 0.000005 -3.648440 5.033310 6.602800 12.994500 -0.242716 -4.980390 88.219900 4.796550 -69.611700 -5.348130 -0.000001 -0.000004 -70.593400 3.182130 -13.805400 -24.328900 0.000322 -0.000009 15.774200 -18.014900 -137.590000 -22.291500 -0.000108 -0.000004 55.291800 5.662530 -16.358700 -2.192480 -6.469440 -0.000000 -170.842000 4.038330 -2.940870 39.081100 -0.000007 -0.000012 0.349229 -0.675408 27.342700 40.985400 -0.000006 -0.000013 -0.781830 9.425540 -75.730200 11.754300 -0.000000 0.000003 0.001108 0.146243 -10.646000 -2.192510 6.469440 -0.000001 -169.668000 7.055700 -176.182000 -39.081100 -0.002282 -0.040193 0.130355 -0.456651 15.545100 -40.985400 0.000008 0.000006 6.782640 1.181490 -70.628600 -11.754300 -0.000006 -0.000006 -0.008165 0.257045 -6.133860
0.000000 0.000000 0.000000 0.000000 0.000000 -0.000000 -5.492970 91.963400 -1.806280 84.795700 0.186977 5.341920 15.735700 0.000005 -0.000001 55.264300 86.349000 -52.334100 8.984550 -0.406207 -0.000000 -1.647320 -4.400240 5.797850 16.377300 -0.000001 -0.000001 9.489170 -0.560371 5.630830 6.456720 -0.000001 -0.000000 2.181230 0.234198 10.102700 12.994200 -0.242716 4.980390 -92.253400 6.726950 -71.431800 5.348090 -0.000007 -0.000001 -76.001600 28.762100 2.885690 24.328600 0.000019 0.000005 12.836000 28.327600 -25.649600 22.291600 -0.000001 0.000005 -3.748930 5.031490 6.642310 12.994500 -0.242716 -4.980390 88.226900 4.772090 -69.589400 -5.348130 -0.000001 -0.000004 -70.623600 3.084080 -13.805100 -24.328900 0.000322 -0.000009 15.630500 -17.778500 -137.500000 -22.291500 -0.000108 -0.000004 55.142300 5.661480 -16.230000 -2.192480 -6.469440 -0.000000 -170.847000 4.049410 -2.949820 39.081100 -0.000007 -0.000012 0.348202 -0.674907 27.291200 40.985400 -0.000006 -0.000013 -0.752583 9.467930 -75.712200 11.754300 -0.000000 0.000003 0.001127 0.145795 -10.664200 -2.192510 6.469440 -0.000001 -169.683000 7.089270 -176.162000 -39.081100 -0.002282 -0.040193 0.129008 -0.454522 15.456700 -40.985400 0.000008 0.000006 6.751690 1.169350 -70.653500 -11.754300 -0.000006 -0.000006 -0.008420 0.259098 -6.049970
